<svg xmlns="http://www.w3.org/2000/svg" xmlns:xlink="http://www.w3.org/1999/xlink" aria-hidden="true" role="img" class="iconify iconify--logos" width="31.88" height="32" preserveAspectRatio="xMidYMid meet" viewBox="0 0 256 257"><defs><linearGradient id="IconifyId1813088fe1fbc01fb466" x1="-.828%" x2="57.636%" y1="7.652%" y2="57.707%" gradientTransform="rotate(114.722 -.828 7.652) scale(1 1.143)"><stop offset="0%" stop-color="#2E86AB"></stop><stop offset="100%" stop-color="#A23B72"></stop></linearGradient><linearGradient id="IconifyId1813088fe1fbc01fb467" x1="43.376%" x2="101.435%" y1="57.707%" y2="7.652%" gradientTransform="rotate(-65.278 43.376 57.707) scale(1 1.143)"><stop offset="0%" stop-color="#F18F01"></stop><stop offset="100%" stop-color="#2E86AB"></stop></linearGradient></defs><path fill="url(#IconifyId1813088fe1fbc01fb466)" d="M128 0C57.308 0 0 57.308 0 128c0 70.692 57.308 128 128 128c70.692 0 128-57.308 128-128C256 57.308 198.692 0 128 0Zm0 36c50.81 0 92 41.19 92 92c0 50.81-41.19 92-92 92c-50.81 0-92-41.19-92-92c0-50.81 41.19-92 92-92Z"></path><path fill="url(#IconifyId1813088fe1fbc01fb467)" d="M128 72c-30.928 0-56 25.072-56 56c0 30.928 25.072 56 56 56c30.928 0 56-25.072 56-56c0-30.928-25.072-56-56-56Zm0 24c17.673 0 32 14.327 32 32c0 17.673-14.327 32-32 32c-17.673 0-32-14.327-32-32c0-17.673 14.327-32 32-32Z"></path><text x="128" y="148" text-anchor="middle" fill="#fff" font-size="48" font-family="Helvetica, Arial, sans-serif" font-weight="bold">🤝</text></svg>
